M48
; DRILL file {KiCad 9.0.7} date 2026-04-21T16:48:05-0400
; FORMAT={-:-/ absolute / metric / decimal}
; #@! TF.CreationDate,2026-04-21T16:48:05-04:00
; #@! TF.GenerationSoftware,Kicad,Pcbnew,9.0.7
; #@! TF.FileFunction,Plated,1,2,PTH
FMAT,2
METRIC
; #@! TA.AperFunction,Plated,PTH,ViaDrill
T1C0.300
; #@! TA.AperFunction,Plated,PTH,ComponentDrill
T2C0.660
; #@! TA.AperFunction,Plated,PTH,ComponentDrill
T3C0.800
; #@! TA.AperFunction,Plated,PTH,ComponentDrill
T4C1.200
%
G90
G05
T1
X117.602Y-76.2
X123.571Y-77.597
X130.81Y-75.692
X134.366Y-76.288
X135.763Y-76.2
X136.017Y-75.184
X137.847Y-74.514
X142.875Y-73.914
X146.685Y-72.263
X149.86Y-76.2
T2
X111.379Y-46.482
X113.919Y-46.482
X144.78Y-46.355
X147.32Y-46.355
T3
X82.526Y-74.388
X82.526Y-76.928
X82.526Y-79.468
X82.526Y-82.008
X82.526Y-84.548
X82.526Y-87.088
X82.526Y-89.628
X82.526Y-92.168
X82.526Y-94.708
X82.526Y-97.248
X82.526Y-99.788
X82.526Y-102.328
X82.526Y-104.868
X82.526Y-107.408
X82.526Y-109.948
X105.386Y-74.388
X105.386Y-76.928
X105.386Y-79.468
X105.386Y-82.008
X105.386Y-84.548
X105.386Y-87.088
X105.386Y-89.628
X105.386Y-92.168
X105.386Y-94.708
X105.386Y-97.248
X105.386Y-99.788
X105.386Y-102.328
X105.386Y-104.868
X105.386Y-107.408
X105.386Y-109.948
T4
X100.584Y-45.268
X100.584Y-48.768
X145.415Y-93.853
X145.415Y-97.353
M30
