%TF.GenerationSoftware,KiCad,Pcbnew,9.0.7*%
%TF.CreationDate,2026-04-21T16:47:04-04:00*%
%TF.ProjectId,quadrature-encoder,71756164-7261-4747-9572-652d656e636f,rev?*%
%TF.SameCoordinates,Original*%
%TF.FileFunction,Soldermask,Top*%
%TF.FilePolarity,Negative*%
%FSLAX46Y46*%
G04 Gerber Fmt 4.6, Leading zero omitted, Abs format (unit mm)*
G04 Created by KiCad (PCBNEW 9.0.7) date 2026-04-21 16:47:04*
%MOMM*%
%LPD*%
G01*
G04 APERTURE LIST*
G04 Aperture macros list*
%AMRoundRect*
0 Rectangle with rounded corners*
0 $1 Rounding radius*
0 $2 $3 $4 $5 $6 $7 $8 $9 X,Y pos of 4 corners*
0 Add a 4 corners polygon primitive as box body*
4,1,4,$2,$3,$4,$5,$6,$7,$8,$9,$2,$3,0*
0 Add four circle primitives for the rounded corners*
1,1,$1+$1,$2,$3*
1,1,$1+$1,$4,$5*
1,1,$1+$1,$6,$7*
1,1,$1+$1,$8,$9*
0 Add four rect primitives between the rounded corners*
20,1,$1+$1,$2,$3,$4,$5,0*
20,1,$1+$1,$4,$5,$6,$7,0*
20,1,$1+$1,$6,$7,$8,$9,0*
20,1,$1+$1,$8,$9,$2,$3,0*%
G04 Aperture macros list end*
%ADD10R,2.500000X2.500000*%
%ADD11C,2.500000*%
%ADD12C,2.200000*%
%ADD13C,1.168400*%
%ADD14RoundRect,0.100000X0.120000X0.100000X-0.120000X0.100000X-0.120000X-0.100000X0.120000X-0.100000X0*%
%ADD15RoundRect,0.100000X0.100000X-0.120000X0.100000X0.120000X-0.100000X0.120000X-0.100000X-0.120000X0*%
%ADD16R,1.473200X0.558800*%
%ADD17R,1.981200X0.558800*%
%ADD18R,2.000000X1.200000*%
%ADD19O,2.000000X1.200000*%
G04 APERTURE END LIST*
D10*
%TO.C,J1*%
X145415000Y-97353000D03*
D11*
X145415000Y-93853000D03*
%TD*%
D12*
%TO.C,REF\u002A\u002A*%
X129540000Y-42291000D03*
%TD*%
%TO.C,REF\u002A\u002A*%
X150114000Y-82931000D03*
%TD*%
%TO.C,REF\u002A\u002A*%
X106934000Y-42164000D03*
%TD*%
%TO.C,REF\u002A\u002A*%
X151257000Y-50800000D03*
%TD*%
%TO.C,REF\u002A\u002A*%
X151257000Y-42291000D03*
%TD*%
%TO.C,REF\u002A\u002A*%
X78232000Y-123063000D03*
%TD*%
%TO.C,REF\u002A\u002A*%
X150241000Y-122682000D03*
%TD*%
%TO.C,REF\u002A\u002A*%
X78105000Y-64897000D03*
%TD*%
D13*
%TO.C,D2*%
X144780000Y-46355000D03*
X147320000Y-46355000D03*
%TD*%
D14*
%TO.C,R1*%
X136373000Y-46421000D03*
X135733000Y-46421000D03*
%TD*%
D15*
%TO.C,R4*%
X129667000Y-76357000D03*
X129667000Y-75717000D03*
%TD*%
D13*
%TO.C,D1*%
X111379000Y-46482000D03*
X113919000Y-46482000D03*
%TD*%
D15*
%TO.C,R6*%
X133167000Y-76357000D03*
X133167000Y-75717000D03*
%TD*%
%TO.C,R3*%
X127917000Y-76357000D03*
X127917000Y-75717000D03*
%TD*%
D16*
%TO.C,Q1*%
X143941800Y-66294000D03*
X149174200Y-66294000D03*
%TD*%
D17*
%TO.C,U2*%
X115519200Y-74676000D03*
X115519200Y-75946000D03*
X115519200Y-77216000D03*
X115519200Y-78486000D03*
X120446800Y-78486000D03*
X120446800Y-77216000D03*
X120446800Y-75946000D03*
X120446800Y-74676000D03*
%TD*%
%TO.C,U1*%
X139903200Y-73914000D03*
X139903200Y-75184000D03*
X139903200Y-76454000D03*
X139903200Y-77724000D03*
X144830800Y-77724000D03*
X144830800Y-76454000D03*
X144830800Y-75184000D03*
X144830800Y-73914000D03*
%TD*%
D15*
%TO.C,R2*%
X126167000Y-76357000D03*
X126167000Y-75717000D03*
%TD*%
D10*
%TO.C,J2*%
X100584000Y-45268000D03*
D11*
X100584000Y-48768000D03*
%TD*%
D14*
%TO.C,R5*%
X123634500Y-46355000D03*
X122994500Y-46355000D03*
%TD*%
D16*
%TO.C,Q2*%
X110159800Y-65913000D03*
X115392200Y-65913000D03*
%TD*%
D18*
%TO.C,U3*%
X82526000Y-74388260D03*
D19*
X82526000Y-76928260D03*
X82526000Y-79468260D03*
X82526000Y-82008260D03*
X82526000Y-84548260D03*
X82526000Y-87088260D03*
X82526000Y-89628260D03*
X82526000Y-92168260D03*
X82526000Y-94708260D03*
X82526000Y-97248260D03*
X82526000Y-99788260D03*
X82526000Y-102328260D03*
X82526000Y-104868260D03*
X82526000Y-107408260D03*
X82526000Y-109948260D03*
X105386000Y-109948260D03*
X105386000Y-107408260D03*
X105386000Y-104868260D03*
X105386000Y-102328260D03*
X105386000Y-99788260D03*
X105386000Y-97248260D03*
X105386000Y-94708260D03*
X105386000Y-92168260D03*
X105386000Y-89628260D03*
X105386000Y-87088260D03*
X105386000Y-84548260D03*
X105386000Y-82008260D03*
X105386000Y-79468260D03*
X105386000Y-76928260D03*
X105386000Y-74388260D03*
%TD*%
M02*
